<svg xmlns="http://www.w3.org/2000/svg" viewBox="0 0 31.12 31.12"><defs><style>.cls-1{fill:none;}.cls-2{fill:#fff;fill-rule:evenodd;}</style></defs><g id="Capa_2" data-name="Capa 2"><g id="Capa_7" data-name="Capa 7"><g id="facebook"><path class="cls-1" d="M15.56,31.12A15.56,15.56,0,1,1,31.12,15.56,15.58,15.58,0,0,1,15.56,31.12Z"/><path class="cls-2" d="M13.12,15.64v9a.24.24,0,0,0,.24.24h3.35a.23.23,0,0,0,.23-.24V15.49h2.43a.24.24,0,0,0,.23-.22l.24-2.76a.23.23,0,0,0-.24-.25H16.94v-2a.83.83,0,0,1,.83-.83h1.87a.24.24,0,0,0,.24-.24V6.47a.24.24,0,0,0-.24-.24H16.48a3.37,3.37,0,0,0-3.36,3.36v2.67H11.45a.23.23,0,0,0-.24.23v2.76a.24.24,0,0,0,.24.24h1.67Z"/></g></g></g></svg>