<svg xmlns="http://www.w3.org/2000/svg" viewBox="0 0 30.92 30.92"><defs><style>.cls-1{fill:#fff;}.cls-2{fill:none;}</style></defs><g id="Capa_2" data-name="Capa 2"><g id="Capa_7" data-name="Capa 7"><g id="instagram"><path class="cls-1" d="M20.67,11.48a1.15,1.15,0,1,0,0-2.29,1.15,1.15,0,0,0,0,2.29Z"/><path class="cls-1" d="M15.59,10.65a4.81,4.81,0,1,0,4.8,4.81A4.82,4.82,0,0,0,15.59,10.65Zm0,7.89a3.08,3.08,0,1,1,3.08-3.08A3.08,3.08,0,0,1,15.59,18.54Z"/><path class="cls-1" d="M25.28,19.2V11.47A5.86,5.86,0,0,0,19.42,5.6H11.69a5.87,5.87,0,0,0-5.87,5.87V19.2a5.86,5.86,0,0,0,5.87,5.86h7.73A5.86,5.86,0,0,0,25.28,19.2Zm-17.62,0V11.47a4,4,0,0,1,4-4h7.73a4,4,0,0,1,4,4V19.2a4,4,0,0,1-4,4H11.69A4,4,0,0,1,7.66,19.2Z"/><path class="cls-2" d="M15.46,30.92A15.46,15.46,0,1,1,30.92,15.46,15.48,15.48,0,0,1,15.46,30.92ZM20.67,9.19a1.15,1.15,0,0,0,0,2.29,1.15,1.15,0,1,0,0-2.29Zm-5.08,1.46a4.81,4.81,0,1,0,4.8,4.81A4.82,4.82,0,0,0,15.59,10.65Zm0,7.89a3.08,3.08,0,1,1,3.08-3.08A3.08,3.08,0,0,1,15.59,18.54Zm9.69-7.07A5.86,5.86,0,0,0,19.42,5.6H11.69a5.87,5.87,0,0,0-5.87,5.87V19.2a5.86,5.86,0,0,0,5.87,5.86h7.73a5.86,5.86,0,0,0,5.86-5.86ZM23.45,19.2a4,4,0,0,1-4,4H11.69a4,4,0,0,1-4-4V11.47a4,4,0,0,1,4-4h7.73a4,4,0,0,1,4,4Z"/></g></g></g></svg>