<svg xmlns="http://www.w3.org/2000/svg" viewBox="0 0 31.12 31.12"><defs><style>.cls-1{fill:none;}.cls-2{fill:#fff;fill-rule:evenodd;}</style></defs><g id="Capa_2" data-name="Capa 2"><g id="Capa_6" data-name="Capa 6"><g id="whatsapp"><path class="cls-1" d="M15.56,31.12A15.56,15.56,0,1,1,31.12,15.56,15.58,15.58,0,0,1,15.56,31.12Z"/><path class="cls-2" d="M16.3,5.43A9.4,9.4,0,0,0,8.4,19.92L7,23.06a.81.81,0,0,0,.13.87.8.8,0,0,0,.62.29.83.83,0,0,0,.22,0l3.93-1.08A9.39,9.39,0,1,0,16.3,5.43Zm0,17.15a7.74,7.74,0,0,1-3.91-1,.78.78,0,0,0-.63-.09l-2.57.71.9-2a.81.81,0,0,0-.09-.82,7.76,7.76,0,1,1,6.3,3.22Z"/><path class="cls-2" d="M19.91,16.23a1.63,1.63,0,0,0-1.37-.3c-.36.14-.58.7-.81,1a.34.34,0,0,1-.44.1,6.23,6.23,0,0,1-3.1-2.65.39.39,0,0,1,.05-.52,2.11,2.11,0,0,0,.56-.91,1.94,1.94,0,0,0-.25-1.08,2.61,2.61,0,0,0-.8-1.21,1.09,1.09,0,0,0-1.18.18,2.52,2.52,0,0,0-.76,2.51,4.69,4.69,0,0,0,.58,1.34,9.19,9.19,0,0,0,.6.93A9.55,9.55,0,0,0,15.62,18a8.49,8.49,0,0,0,1.64.78,3.71,3.71,0,0,0,1.91.3,2.33,2.33,0,0,0,1.74-1.29,1.21,1.21,0,0,0,.08-.65C20.89,16.72,20.27,16.45,19.91,16.23Z"/></g></g></g></svg>