<svg xmlns="http://www.w3.org/2000/svg" viewBox="0 0 31.12 31.12"><defs><style>.cls-1{fill:none;}.cls-2{fill:#fff;}</style></defs><g id="Capa_2" data-name="Capa 2"><g id="Capa_7" data-name="Capa 7"><g id="youtube"><path class="cls-1" d="M15.56,31.12A15.56,15.56,0,1,1,31.12,15.56,15.58,15.58,0,0,1,15.56,31.12Z"/><path class="cls-2" d="M24.88,13.2a4,4,0,0,0-4-4H10.52a4,4,0,0,0-4,4v4.86a4,4,0,0,0,4,4H20.88a4,4,0,0,0,4-4Zm-6.54,2.68-4.13,2.26a.23.23,0,0,1-.35-.23V13.25c0-.21.17-.34.35-.23l4.16,2.38A.27.27,0,0,1,18.34,15.88Z"/></g></g></g></svg>